<svg id="Layer_1" data-name="Layer 1" xmlns="http://www.w3.org/2000/svg" viewBox="0 0 252.71 61.63"><defs><style>.cls-1{fill:#4071d3}</style></defs><path class="cls-1" d="M236.07 60.22a3.08 3.08 0 01-5.15 0 269.63 269.63 0 01-14.69-24.61c-2.79-5.32-5.07-10.25-4.63-16.77.16-2.37.53-7.94 4.82-12.69.29-.32 7.15-7.79 17-5.88 5.2 1 11.19 4.66 12.84 10.54 1 3.51.08 6.34-2.37 12.42-1.87 4.62-3.9 9.27-6.06 13.88a3.09 3.09 0 01-4.13 1.47 3.09 3.09 0 01-1.45-4.09c2.11-4.51 4.09-9.06 5.92-13.57 2.32-5.74 2.55-7 2.15-8.44-.89-3.18-4.73-5.51-8.07-6.15-6.4-1.24-11.19 3.9-11.24 4-2.85 3.17-3.11 7-3.24 9-.33 4.92 1.42 8.69 3.93 13.48 2.76 5.25 5.77 10.51 9 15.72a3.09 3.09 0 005.32-.12c.65-1.17 1.29-2.34 1.91-3.51a162.35 162.35 0 009-20.26 3.09 3.09 0 013.91-1.87 3.08 3.08 0 011.9 4 170.78 170.78 0 01-9.35 21.05c-2.25 4.24-4.7 8.43-7.3 12.47z" transform="translate(-.19)"/><path class="cls-1" d="M225.25 32.94l-.35-.23a2.75 2.75 0 01-.94-3.43l5.45-11.58a2.75 2.75 0 013.38-1.41 2.74 2.74 0 011.6 3.66l-5.11 11.81a2.72 2.72 0 01-4.03 1.18zM33.8 46.69a11.77 11.77 0 01-5.6-1 76.25 76.25 0 01-6.12-5.38q-3.33 7-10.72 7A10.81 10.81 0 01.19 36.17q0-5.08 6.81-11.89l-1.66-1.89 3.94-4 17.55 18.69a22.33 22.33 0 003 2.83 9 9 0 004 .91zM17 36.56a4.3 4.3 0 00-1.11-3.23l-4.69-4.69a42.32 42.32 0 00-3.42 3.46 7.21 7.21 0 00-1.72 4.46 4.78 4.78 0 001.53 3.69 5.41 5.41 0 003.84 1.42 5.77 5.77 0 003.92-1.45A4.62 4.62 0 0017 36.56z" transform="translate(-.19)"/><path class="cls-1" d="M49.53 37.14a9.93 9.93 0 01-2.34 6.58 7.7 7.7 0 01-6.16 3h-9.6v-5.9q9.21 0 10.25-.35 2-.72 2-5.28v-3.45c0-1.54-.05-2.69-.05-3.45h6zm-5.76-18.07A4 4 0 0142.58 22a3.91 3.91 0 01-2.88 1.21c-3 0-4.46-1.38-4.46-4.14 0-2.32 1.41-3.49 4.23-3.49s4.3 1.17 4.3 3.49zM68.26 46.69q-7.43 0-10.45-2.87-2-1.86-2-6.09V10h5.86v25.16c0 2.71.45 4.37 1.37 5 .56.37 2.31.6 5.24.68z" transform="translate(-.19)"/><path class="cls-1" d="M112.23 37.27a11.56 11.56 0 01-2 6.94 7.21 7.21 0 01-6.23 3.06 10.35 10.35 0 01-8.08-4c-2.26 2.6-4.63 3.91-7.13 3.91q-4.23 0-8-4.63-3.94 4.11-7.72 4.11h-7.42v-5.84h7q4.07 0 4.07-4.26v-8.24h5.76v8.63a4.43 4.43 0 001.52 3.4 5 5 0 003.55 1.32c2.75 0 4.13-1.21 4.13-3.65v-9.73h5.7v8.63a4.41 4.41 0 001.47 3.42 5.12 5.12 0 003.58 1.33c2.74 0 4.1-1.21 4.1-3.65v-9.73h5.74zM91.74 20.63a3.43 3.43 0 01-1.09 2.56 3.62 3.62 0 01-2.59 1.06 4.35 4.35 0 01-2.87-1A3.26 3.26 0 0184 20.63q0-3.12 3.75-3.12 4 0 3.99 3.12zm5.6-8.27a3.34 3.34 0 01-1.1 2.57 3.76 3.76 0 01-2.64 1 4.39 4.39 0 01-2.84-1 3.25 3.25 0 01-1.3-2.61q0-3.16 3.75-3.16 4.13.04 4.13 3.2zm5.73 8.27a3.39 3.39 0 01-1.07 2.59 3.69 3.69 0 01-2.65 1 4.43 4.43 0 01-2.87-1 3.23 3.23 0 01-1.23-2.61c0-2.08 1.22-3.12 3.68-3.12q4.14.02 4.14 3.14zM145.09 39a6.94 6.94 0 01-2.64 5.67 9.28 9.28 0 01-6 2h-18.2l-.81-5.87H136c2.17 0 3.26-.76 3.26-2.28a3 3 0 00-.88-2.11l-13.19-14 3.94-4 13.19 14a9.42 9.42 0 012.77 6.59zM177.26 46.69c-2.95 0-5-.93-6.28-2.77a19.76 19.76 0 01-3.65 12.21 13.14 13.14 0 01-11.17 5.37h-7.59l-.94-5.86h8.07a9.45 9.45 0 006.48-2.38A7.91 7.91 0 00165 47V28.29h5.86v8.43q0 4 6.38 4.1z" transform="translate(-.19)"/><path class="cls-1" d="M201.3 38.9a6.85 6.85 0 01-2.9 5.86 10.38 10.38 0 01-6.4 1.93h-17.15v-5.87H192c2.24 0 3.36-.73 3.36-2.21a3.43 3.43 0 00-1.08-2.35l-15.6-16.21-1.1-6.58 21.65-7.79.82 5.87-15.44 5.86 15.08 16.64a7 7 0 011.61 4.85zm-3.55-36.54l-20.49 7.39-.26-2.24 20.58-7.4z" transform="translate(-.19)"/></svg>